<svg xmlns="http://www.w3.org/2000/svg" xmlns:xlink="http://www.w3.org/1999/xlink" width="32" height="32" viewBox="0 0 32 32">
    <defs>
        <path id="a" d="M0 0h32v32H0z"/>
    </defs>
    <g fill="none" fill-rule="evenodd">
        <mask id="b" fill="#fff">
            <use xlink:href="#a"/>
        </mask>
        <g fill="#2A3052" mask="url(#b)">
            <path d="M29.669 16l-3.2 2.414v-4.828z"/>
            <path fill-rule="nonzero" d="M2.603 16.5c-.266 0-.482-.18-.482-.4 0-.22.216-.4.482-.4h.725c.266 0 .482.18.482.4 0 .22-.216.4-.482.4h-.725zm2.656 0c-.267 0-.483-.18-.483-.4 0-.22.216-.4.483-.4h.724c.266 0 .483.18.483.4 0 .22-.217.4-.483.4h-.724zm2.655 0c-.267 0-.483-.18-.483-.4 0-.22.216-.4.483-.4h.724c.267 0 .483.18.483.4 0 .22-.216.4-.483.4h-.724zm2.655 0c-.267 0-.483-.18-.483-.4 0-.22.216-.4.483-.4h.724c.267 0 .483.18.483.4 0 .22-.216.4-.483.4h-.724zm2.655 0c-.266 0-.483-.18-.483-.4 0-.22.217-.4.483-.4h.724c.267 0 .483.18.483.4 0 .22-.216.4-.483.4h-.724zm2.655 0c-.266 0-.482-.18-.482-.4 0-.22.216-.4.482-.4h.724c.267 0 .483.18.483.4 0 .22-.216.4-.483.4h-.724zm2.655 0c-.266 0-.482-.18-.482-.4 0-.22.216-.4.482-.4h.725c.266 0 .482.18.482.4 0 .22-.216.4-.482.4h-.725zm2.656 0c-.267 0-.483-.18-.483-.4 0-.22.216-.4.483-.4h.724c.266 0 .483.18.483.4 0 .22-.217.4-.483.4h-.724zm2.655 0c-.267 0-.483-.18-.483-.4 0-.22.216-.4.483-.4h.724c.267 0 .483.18.483.4 0 .22-.216.4-.483.4h-.724z"/>
        </g>
    </g>
</svg>
