<svg xmlns="http://www.w3.org/2000/svg" xmlns:xlink="http://www.w3.org/1999/xlink" viewBox="0 0 32 32"><defs><path id="a" d="M0 0h32v32H0z"/><circle id="c" cx="7" cy="7" r="7"/><circle id="d" cx="13" cy="13" r="7"/></defs><g fill="none" fill-rule="evenodd"><mask id="b" fill="#fff"><use xlink:href="#a"/></mask><g mask="url(#b)"><g transform="translate(6 6)"><use fill="#C9CDE3" xlink:href="#c"/><circle cx="7" cy="7" r="6.5" stroke="#4C5794"/></g><path fill="#4C5794" fill-rule="nonzero" stroke="#C9CDE3" stroke-width=".4" d="M12.444 14.201l.246-1.838 1.552-1.161v-1.115l-1.386 1.038L13.14 9h-1.696l-.364 3.453-1.08.808v1.116l.952-.713-.204 1.94h5.55V14.2z"/><g transform="translate(6 6)"><use fill="#FFF" xlink:href="#d"/><circle cx="13" cy="13" r="6.5" stroke="#4C5794"/></g><path fill="#4C5794" fill-rule="nonzero" d="M20.506 20.555a.647.647 0 0 1-.304.39.605.605 0 0 1-.48.051l-1.617-.5.36-1.258 1.617.5c.333.104.524.47.424.817m.546-2.577a.68.68 0 0 1 .05.499.628.628 0 0 1-.785.442l-1.617-.501.36-1.258 1.617.501c.161.05.294.162.375.317m.723-.408a1.458 1.458 0 0 0-.863-.73l-.214-.065.3-1.046-.769-.238-.3 1.046-.655-.203.3-1.046-.185-.057-.745-.231-.29 1.008-.908-.282-.256.896.909.281-.934 3.26-.909-.281-.256.895.909.282-.244.85.184.057.746.231.254-.888.657.203-.254.889.765.237.255-.889.215.067a1.402 1.402 0 0 0 1.107-.12c.341-.191.59-.51.701-.897a1.56 1.56 0 0 0-.126-1.17c.336-.182.604-.5.721-.908.11-.387.07-.796-.115-1.15"/></g></g></svg>