<svg xmlns="http://www.w3.org/2000/svg" xmlns:xlink="http://www.w3.org/1999/xlink" width="32" height="32" viewBox="0 0 32 32">
    <defs>
        <path id="a" d="M0 0h32v32H0z"/>
    </defs>
    <g fill="none" fill-rule="evenodd">
        <mask id="b" fill="#fff">
            <use xlink:href="#a"/>
        </mask>
        <g mask="url(#b)">
            <g transform="translate(6 6)">
                <g fill="#2A3052" opacity=".05">
                    <path d="M6.953 12.844s.119.89.868 1.303l-.2-.372s.382-1.002-.668-.931"/>
                    <path d="M10.415 6.579c.795.283 1.05 1.13 1.05 1.13-1.011.23-.798-.802-.798-.802l-.252-.328zm5.32 9.158c-.103.102-.205.2-.31.296-2.283 1.86-4.041.934-4.062.934-1.192-.238-1.783-.241-2.118-.465-.084-.056-.353-.201-.415-.166-.244.145-.578.22-.923-.055a1.301 1.301 0 0 1-.085-.078c-.38-.378-.251-.768-.125-.903.087-.089-.067-.339-.067-.339s-.447-.664-.753-1.064c-.337-.44-.382-1.31-.386-1.322l-.005-.012c-.34-.404-.375-.529-.493-.725-.068-.117-.174-.226-.263-.32a1.665 1.665 0 0 1-.159-.174c-.009-.012-.011-.029-.008-.055.032-.19.437-.605.525-.663.107-.07.57-.35.57-.35s.26-.41.702-.41c.399.003.642-.021 1.33.203l.287.09c.48.155.902.336 1.239.481.285.123.513.222.688.268.594.156 1.64-.324 1.862-.527.362-.33.518-.55.52-.731.003-.102-.042-.19-.144-.298-.054-.05-.122-.141-.209-.228-.014-.014-.028-.03-.046-.042-1.004-1.067-.83-1.737-.83-1.747.044-.48-.231-.789-.527-1.108l-.049-.06a.366.366 0 0 1-.034-.039c.428.07.72.242 1.555.336.475.05.325.046.704.037.523-.017.937-.062.965-.181-.05-.043-.282.012-1.391-.411a16.091 16.091 0 0 0-.922-.334c-.42-.142-.875-.338-.875-.338 1.81.475 2.402.66 3.23.672.32.006.511-.032.623-.055.118-.022.483-.104.525-.23.012-.023-.35.059-1.023-.163-2.112-.698-2.292-1.047-3.463-1.503-.409-.158-.542-.245-1.775-.564-.566-.145-1.42-.062-1.537.011-1.601-.376-1.965-.335-2.435-.234 3.133-2.009 7.365-1.647 10.107 1.094.372.373.7.773.99 1.197l.038.059A8.028 8.028 0 0 1 18.112 10a8.064 8.064 0 0 1-2.377 5.736zm.983-12.457c-3.707-3.707-9.733-3.707-13.44 0-3.704 3.705-3.704 9.735 0 13.441 3.707 3.706 9.735 3.705 13.44 0 3.71-3.706 3.71-9.736 0-13.44z"/>
                </g>
                <circle cx="10" cy="10" r="9.5" stroke="#4C5794"/>
                <path fill="#4C5794" d="M3.269 12V8.445h1.145c.314 0 .596.072.847.214.25.142.446.343.587.603.14.26.212.55.214.873v.163c0 .326-.07.618-.207.876-.137.258-.331.46-.58.605-.25.146-.53.22-.837.221h-1.17zm.856-2.893v2.234h.298c.246 0 .435-.088.567-.263.132-.175.197-.435.197-.78v-.153c0-.344-.065-.603-.197-.777-.132-.174-.324-.261-.576-.261h-.289zm4.58 1.387H7.359v.847H8.95V12H6.5V8.445h2.454v.662H7.358v.75h1.348v.637zm1.72-2.049l.793 2.473.79-2.473h1.129V12h-.86v-.83l.083-1.7-.859 2.53h-.566l-.862-2.532.083 1.702V12h-.857V8.445h1.125zm6.266 1.85c0 .348-.064.654-.192.921a1.425 1.425 0 0 1-.549.617 1.526 1.526 0 0 1-.809.216c-.303 0-.571-.07-.806-.209a1.423 1.423 0 0 1-.548-.597 2.036 2.036 0 0 1-.206-.89v-.201c0-.348.064-.656.192-.922.127-.266.31-.471.549-.616.238-.145.51-.218.814-.218.301 0 .57.072.806.215.236.144.42.347.55.612.131.264.198.568.2.91v.163zm-.871-.148c0-.353-.06-.621-.177-.804a.568.568 0 0 0-.507-.275c-.43 0-.657.322-.68.967l-.003.26c0 .35.057.617.173.804.116.187.287.28.515.28a.56.56 0 0 0 .5-.275c.118-.184.177-.448.179-.793v-.164z"/>
            </g>
        </g>
    </g>
</svg>
