<svg xmlns="http://www.w3.org/2000/svg" xmlns:xlink="http://www.w3.org/1999/xlink" viewBox="0 0 32 32"><defs><path id="a" d="M0 0h32v32H0z"/></defs><g fill="none" fill-rule="evenodd"><mask id="b" fill="#fff"><use xlink:href="#a"/></mask><g stroke="#4C5794" mask="url(#b)"><path fill="#FFF" d="M20.273 13.636H6V9.364h14.273V7.082a.082.082 0 0 1 .133-.064l5.563 4.418a.082.082 0 0 1 0 .128l-5.563 4.418a.082.082 0 0 1-.133-.064v-2.282z"/><path fill="#C9CDE3" d="M11.727 22.636H26v-4.272H11.727v-2.282a.082.082 0 0 0-.133-.064l-5.563 4.418a.082.082 0 0 0 0 .128l5.563 4.418a.082.082 0 0 0 .133-.064v-2.282z"/></g></g></svg>