<svg xmlns="http://www.w3.org/2000/svg" xmlns:xlink="http://www.w3.org/1999/xlink" width="32" height="32" viewBox="0 0 32 32">
    <defs>
        <path id="a" d="M0 0h32v32H0z"/>
    </defs>
    <g fill="none" fill-rule="evenodd">
        <mask id="b" fill="#fff">
            <use xlink:href="#a"/>
        </mask>
        <g mask="url(#b)">
            <path fill="#4C5794" fill-rule="nonzero" d="M21.988 17.422a14.338 14.338 0 0 0-2.13-3.468 15.967 15.967 0 0 0-2.728-2.632l2.089-3.933a.498.498 0 0 0-.09-.59C18.589 6.261 18.015 6 17.376 6c-.586 0-1.123.225-1.59.424-.368.154-.717.304-1 .304a.614.614 0 0 1-.233-.042c-.975-.362-1.724-.586-2.45-.586-.917 0-1.7.374-2.465 1.172a.508.508 0 0 0-.058.624l2.253 3.455a16.236 16.236 0 0 0-2.691 2.603 14.468 14.468 0 0 0-2.13 3.468 11.943 11.943 0 0 0-.975 4.707C6.037 24.262 7.749 26 9.85 26h9.298c2.102 0 3.814-1.738 3.814-3.871 0-1.605-.328-3.19-.975-4.707zm-11.36-9.734c.476-.416.93-.599 1.476-.599.581 0 1.237.2 2.11.528.18.067.372.1.569.1.479 0 .938-.191 1.376-.378.422-.179.823-.35 1.213-.35.188 0 .454.034.79.275l-1.966 3.709H12.77L10.63 7.688zm8.521 17.314H9.851c-1.561 0-2.831-1.289-2.831-2.873 0-2.665.963-5.193 2.855-7.514a15.122 15.122 0 0 1 2.782-2.644h3.678c.373.262 1.585 1.177 2.782 2.644 1.896 2.32 2.855 4.844 2.855 7.514.008 1.584-1.262 2.873-2.823 2.873z"/>
            <path fill="#C9CDE3" d="M18 20h8v1h-8z"/>
            <path fill="#4C5794" d="M18.5 19h7a.5.5 0 0 1 .5.5v.5h-8v-.5a.5.5 0 0 1 .5-.5zM18 21h8v1h-8zM25 20h1v1h-1zM18 20h1v1h-1z"/>
            <g>
                <path fill="#C9CDE3" d="M18 22h8v1h-8z"/>
                <path fill="#4C5794" d="M18 21h8v1h-8zM18 23h8v1h-8zM25 22h1v1h-1zM18 22h1v1h-1z"/>
            </g>
            <g>
                <path fill="#C9CDE3" d="M18 24h8v1h-8z"/>
                <path fill="#4C5794" d="M18 23h8v1h-8zM18 25h8v.5a.5.5 0 0 1-.5.5h-7a.5.5 0 0 1-.5-.5V25zM25 24h1v1h-1zM18 24h1v1h-1z"/>
            </g>
        </g>
    </g>
</svg>
